<svg id="visual" viewBox="0 0 675 900" width="675" height="900" xmlns="http://www.w3.org/2000/svg" xmlns:xlink="http://www.w3.org/1999/xlink" version="1.1"><path d="M0 91L11.3 95.5C22.7 100 45.3 109 67.8 127C90.3 145 112.7 172 135.2 190C157.7 208 180.3 217 202.8 218.5C225.3 220 247.7 214 270.2 196C292.7 178 315.3 148 337.8 137.5C360.3 127 382.7 136 405 145C427.3 154 449.7 163 472.2 148C494.7 133 517.3 94 540 83.5C562.7 73 585.3 91 607.8 103C630.3 115 652.7 121 663.8 124L675 127L675 0L663.8 0C652.7 0 630.3 0 607.8 0C585.3 0 562.7 0 540 0C517.3 0 494.7 0 472.2 0C449.7 0 427.3 0 405 0C382.7 0 360.3 0 337.8 0C315.3 0 292.7 0 270.2 0C247.7 0 225.3 0 202.8 0C180.3 0 157.7 0 135.2 0C112.7 0 90.3 0 67.8 0C45.3 0 22.7 0 11.3 0L0 0Z" fill="#052d0b"></path><path d="M0 145L11.3 154C22.7 163 45.3 181 67.8 197.5C90.3 214 112.7 229 135.2 239.5C157.7 250 180.3 256 202.8 257.5C225.3 259 247.7 256 270.2 250C292.7 244 315.3 235 337.8 235C360.3 235 382.7 244 405 259C427.3 274 449.7 295 472.2 284.5C494.7 274 517.3 232 540 215.5C562.7 199 585.3 208 607.8 202C630.3 196 652.7 175 663.8 164.5L675 154L675 125L663.8 122C652.7 119 630.3 113 607.8 101C585.3 89 562.7 71 540 81.5C517.3 92 494.7 131 472.2 146C449.7 161 427.3 152 405 143C382.7 134 360.3 125 337.8 135.5C315.3 146 292.7 176 270.2 194C247.7 212 225.3 218 202.8 216.5C180.3 215 157.7 206 135.2 188C112.7 170 90.3 143 67.8 125C45.3 107 22.7 98 11.3 93.5L0 89Z" fill="#1d4725"></path><path d="M0 307L11.3 298C22.7 289 45.3 271 67.8 289C90.3 307 112.7 361 135.2 389.5C157.7 418 180.3 421 202.8 415C225.3 409 247.7 394 270.2 370C292.7 346 315.3 313 337.8 299.5C360.3 286 382.7 292 405 308.5C427.3 325 449.7 352 472.2 359.5C494.7 367 517.3 355 540 347.5C562.7 340 585.3 337 607.8 325C630.3 313 652.7 292 663.8 281.5L675 271L675 152L663.8 162.5C652.7 173 630.3 194 607.8 200C585.3 206 562.7 197 540 213.5C517.3 230 494.7 272 472.2 282.5C449.7 293 427.3 272 405 257C382.7 242 360.3 233 337.8 233C315.3 233 292.7 242 270.2 248C247.7 254 225.3 257 202.8 255.5C180.3 254 157.7 248 135.2 237.5C112.7 227 90.3 212 67.8 195.5C45.3 179 22.7 161 11.3 152L0 143Z" fill="#366340"></path><path d="M0 721L11.3 683.5C22.7 646 45.3 571 67.8 551.5C90.3 532 112.7 568 135.2 566.5C157.7 565 180.3 526 202.8 523C225.3 520 247.7 553 270.2 538C292.7 523 315.3 460 337.8 458.5C360.3 457 382.7 517 405 551.5C427.3 586 449.7 595 472.2 608.5C494.7 622 517.3 640 540 629.5C562.7 619 585.3 580 607.8 593.5C630.3 607 652.7 673 663.8 706L675 739L675 269L663.8 279.5C652.7 290 630.3 311 607.8 323C585.3 335 562.7 338 540 345.5C517.3 353 494.7 365 472.2 357.5C449.7 350 427.3 323 405 306.5C382.7 290 360.3 284 337.8 297.5C315.3 311 292.7 344 270.2 368C247.7 392 225.3 407 202.8 413C180.3 419 157.7 416 135.2 387.5C112.7 359 90.3 305 67.8 287C45.3 269 22.7 287 11.3 296L0 305Z" fill="#4f815d"></path><path d="M0 865L11.3 851.5C22.7 838 45.3 811 67.8 793C90.3 775 112.7 766 135.2 779.5C157.7 793 180.3 829 202.8 833.5C225.3 838 247.7 811 270.2 788.5C292.7 766 315.3 748 337.8 742C360.3 736 382.7 742 405 743.5C427.3 745 449.7 742 472.2 746.5C494.7 751 517.3 763 540 784C562.7 805 585.3 835 607.8 848.5C630.3 862 652.7 859 663.8 857.5L675 856L675 737L663.8 704C652.7 671 630.3 605 607.8 591.5C585.3 578 562.7 617 540 627.5C517.3 638 494.7 620 472.2 606.5C449.7 593 427.3 584 405 549.5C382.7 515 360.3 455 337.8 456.5C315.3 458 292.7 521 270.2 536C247.7 551 225.3 518 202.8 521C180.3 524 157.7 563 135.2 564.5C112.7 566 90.3 530 67.8 549.5C45.3 569 22.7 644 11.3 681.5L0 719Z" fill="#689f7b"></path><path d="M0 901L11.3 901C22.7 901 45.3 901 67.8 901C90.3 901 112.7 901 135.2 901C157.7 901 180.3 901 202.8 901C225.3 901 247.7 901 270.2 901C292.7 901 315.3 901 337.8 901C360.3 901 382.7 901 405 901C427.3 901 449.7 901 472.2 901C494.7 901 517.3 901 540 901C562.7 901 585.3 901 607.8 901C630.3 901 652.7 901 663.8 901L675 901L675 854L663.8 855.5C652.7 857 630.3 860 607.8 846.5C585.3 833 562.7 803 540 782C517.3 761 494.7 749 472.2 744.5C449.7 740 427.3 743 405 741.5C382.7 740 360.3 734 337.8 740C315.3 746 292.7 764 270.2 786.5C247.7 809 225.3 836 202.8 831.5C180.3 827 157.7 791 135.2 777.5C112.7 764 90.3 773 67.8 791C45.3 809 22.7 836 11.3 849.5L0 863Z" fill="#83bf9b"></path></svg>